<svg width="1500" height="1500" viewBox="0 0 1500 1500" fill="none" xmlns="http://www.w3.org/2000/svg">
<rect x="105" y="105" width="1290" height="1290" stroke="#353736" stroke-width="210"/>
<rect x="231.288" y="226.191" width="30.4453" height="30.4453" rx="15.2227" stroke="#353736" stroke-width="30"/>
<path d="M1015.83 1047.5H1217.5V1230.83H1015.83V1047.5Z" fill="#353736"/>
<path d="M1052.5 1010.83H1281.67V1056.67H1052.5V1010.83Z" fill="#353736"/>
<path d="M1034.17 1029.17H1263.33V1065.83H1034.17V1029.17Z" fill="#353736"/>
<path d="M1090 1005H1290V1045H1090V1005Z" fill="#353736"/>
<path d="M1015.83 1075H1162.5V1267.5H1015.83V1075Z" fill="#353736"/>
<path d="M960.833 1240H1144.17V1276.67H960.833V1240Z" fill="#353736"/>
<path d="M979.167 1221.67H1162.5V1258.33H979.167V1221.67Z" fill="#353736"/>
<path d="M997.5 1102.5H1162.5V1258.33H997.5V1102.5Z" fill="#353736"/>
<path d="M960 1265H1130V1275H960V1265Z" fill="#353736"/>
<path d="M1210 1045H1230V1225H1210V1045Z" fill="#353736"/>
<path d="M1160 1235H1190V1255H1160V1235Z" fill="#353736"/>
<path d="M1180 1025H1240V1205H1180V1025Z" fill="#353736"/>
<path d="M1235.83 965H1281.67V1148.33H1235.83V965Z" fill="#353736"/>
<path d="M1263.33 882.5H1300V1001.67H1263.33V882.5Z" fill="#353736"/>
<path d="M1254.17 955.833H1290.83V1075H1254.17V955.833Z" fill="#353736"/>
<path d="M1226.67 983.333H1272.5V1102.5H1226.67V983.333Z" fill="#353736"/>
<path d="M1240 1015H1260V1185H1240V1015Z" fill="#353736"/>
<path d="M1190 992.5H1272.5V1157.5H1190V992.5Z" fill="#353736"/>
<path fill-rule="evenodd" clip-rule="evenodd" d="M925.257 215H574.743C456.956 215 407.092 215.462 353.595 232.183C299.655 252.135 257.135 294.655 237.183 348.595C220.462 402.092 220 451.966 220 569.743V920.257C220 1038.04 220.462 1087.9 237.183 1141.41C257.136 1195.35 299.657 1237.87 353.594 1257.81C407.089 1274.54 456.95 1275 574.743 1275H925.257C1043.05 1275 1092.9 1274.54 1146.41 1257.81C1200.34 1237.87 1242.86 1195.35 1262.82 1141.41C1279.54 1087.9 1280 1038.04 1280 920.257V569.743C1280 451.965 1279.54 402.091 1262.82 348.594C1242.87 294.655 1200.35 252.135 1146.41 232.183C1092.9 215.462 1043.04 215 925.257 215ZM1152.86 213.246C1212.67 235.207 1259.79 282.333 1281.75 342.142C1299.73 399.347 1300 452.578 1300 569.743V920.257C1300 1037.43 1299.73 1090.64 1281.75 1147.86C1259.79 1207.67 1212.67 1254.79 1152.86 1276.74C1095.64 1294.73 1042.43 1295 925.257 1295H574.743C457.566 1295 404.347 1294.73 347.143 1276.74C287.335 1254.79 240.207 1207.67 218.246 1147.86C200.274 1090.64 200 1037.43 200 920.257V569.743C200 452.579 200.274 399.348 218.246 342.143C240.207 282.333 287.333 235.207 347.143 213.246C404.348 195.274 457.569 195 574.743 195H925.257C1042.43 195 1095.64 195.274 1152.86 213.246Z" fill="#353736"/>
<path fill-rule="evenodd" clip-rule="evenodd" d="M928.178 206.167H571.822C452.072 206.167 401.376 206.637 346.988 223.636C292.149 243.92 248.92 287.149 228.636 341.988C211.637 396.376 211.167 447.082 211.167 566.822V923.178C211.167 1042.93 211.636 1093.61 228.636 1148.01C248.921 1202.85 292.151 1246.08 346.987 1266.35C401.374 1283.36 452.066 1283.83 571.822 1283.83H928.178C1047.93 1283.83 1098.61 1283.36 1153.01 1266.35C1207.85 1246.08 1251.08 1202.85 1271.36 1148.01C1288.36 1093.61 1288.83 1042.93 1288.83 923.178V566.822C1288.83 447.081 1288.36 396.376 1271.36 341.987C1251.08 287.149 1207.85 243.921 1153.01 223.636C1098.61 206.637 1047.93 206.167 928.178 206.167ZM1157.92 195H1300C1300 195 1300 447.704 1300 566.822C1300 685.94 1300 804.052 1300 923.178C1300 1042.3 1300 1152.92 1300 1152.92V1295C1300 1295 1047.31 1295 928.178 1295C809.049 1295 571.25 1295 571.25 1295H342.083H200C200 1295 200 1042.3 200 923.178L200 568.688V337.083V195C200 195 452.695 195 571.822 195C690.949 195 805.041 195 924.167 195C1043.29 195 1157.92 195 1157.92 195Z" fill="#353736"/>
<path fill-rule="evenodd" clip-rule="evenodd" d="M922.336 223.833H577.664C461.84 223.833 412.807 224.288 360.202 240.73C307.16 260.349 265.349 302.16 245.73 355.202C229.288 407.807 228.833 456.849 228.833 572.664V917.336C228.833 1033.16 229.288 1082.18 245.73 1134.8C265.35 1187.84 307.162 1229.65 360.2 1249.26C412.805 1265.71 461.834 1266.17 577.664 1266.17H922.336C1038.16 1266.17 1087.18 1265.71 1139.8 1249.26C1192.84 1229.65 1234.65 1187.84 1254.27 1134.8C1270.71 1082.18 1271.17 1033.16 1271.17 917.336V572.664C1271.17 456.849 1270.71 407.806 1254.27 355.201C1234.65 302.16 1192.84 260.349 1139.8 240.73C1087.18 224.288 1038.16 223.833 922.336 223.833ZM1146.14 222.108C1204.96 243.703 1251.3 290.044 1272.89 348.856C1290.56 405.108 1290.83 457.451 1290.83 572.664V917.336C1290.83 1032.56 1290.56 1084.88 1272.89 1141.14C1251.3 1199.96 1204.95 1246.3 1146.14 1267.88C1089.88 1285.56 1037.56 1285.83 922.336 1285.83H577.664C462.44 1285.83 410.108 1285.56 353.857 1267.88C295.046 1246.3 248.704 1199.96 227.108 1141.14C209.436 1084.88 209.167 1032.56 209.167 917.336V572.664C209.167 457.452 209.436 405.109 227.108 348.857C248.703 290.044 295.044 243.703 353.857 222.108C410.109 204.436 462.443 204.167 577.664 204.167H922.336C1037.56 204.167 1089.88 204.436 1146.14 222.108Z" fill="#353736"/>
<path fill-rule="evenodd" clip-rule="evenodd" d="M925.459 223.667H583.708C468.866 223.667 420.248 224.117 368.088 240.42C315.496 259.873 274.04 301.33 254.586 353.922C238.284 406.081 237.833 454.708 237.833 569.541V911.292C237.833 1026.13 238.284 1074.74 254.587 1126.91C274.041 1179.51 315.499 1220.96 368.087 1240.4C420.246 1256.72 468.86 1257.17 583.708 1257.17H925.459C1040.3 1257.17 1088.91 1256.72 1141.08 1240.4C1193.67 1220.96 1235.13 1179.51 1254.58 1126.91C1270.88 1074.74 1271.33 1026.13 1271.33 911.292V569.541C1271.33 454.708 1270.88 406.08 1254.58 353.921C1235.13 301.33 1193.67 259.873 1141.08 240.42C1088.91 224.117 1040.3 223.667 925.459 223.667ZM1147.37 221.956C1205.68 243.368 1251.63 289.316 1273.04 347.63C1290.57 403.405 1290.83 455.305 1290.83 569.541V911.292C1290.83 1025.54 1290.57 1077.42 1273.04 1133.2C1251.63 1191.52 1205.68 1237.47 1147.37 1258.87C1091.59 1276.4 1039.71 1276.67 925.459 1276.67H583.708C469.46 1276.67 417.572 1276.4 361.798 1258.87C303.485 1237.47 257.535 1191.52 236.123 1133.2C218.6 1077.42 218.333 1025.54 218.333 911.292V569.541C218.333 455.306 218.601 403.406 236.123 347.631C257.535 289.317 303.483 243.368 361.798 221.956C417.572 204.434 469.463 204.167 583.708 204.167H925.459C1039.7 204.167 1091.58 204.434 1147.37 221.956Z" fill="#353736"/>
<path fill-rule="evenodd" clip-rule="evenodd" d="M922.538 241.667H586.629C473.75 241.667 425.963 242.11 374.695 258.133C323.002 277.254 282.254 318.002 263.133 369.695C247.11 420.963 246.667 468.759 246.667 581.629V917.538C246.667 1030.41 247.109 1078.19 263.134 1129.47C282.255 1181.17 323.004 1221.91 374.694 1241.02C425.961 1257.06 473.744 1257.5 586.629 1257.5H879.167C925.193 1257.5 952.425 1248.18 968.635 1231.97C984.844 1215.76 994.167 1188.53 994.167 1142.5C994.167 1092.69 1004.01 1052.84 1030.93 1025.93C1057.84 999.011 1097.69 989.167 1147.5 989.167C1193.53 989.167 1220.76 979.844 1236.97 963.635C1253.18 947.425 1262.5 920.193 1262.5 874.167V581.629C1262.5 468.758 1262.06 420.962 1246.03 369.694C1226.91 318.002 1186.16 277.254 1134.47 258.134C1083.19 242.11 1035.41 241.667 922.538 241.667ZM1140.65 239.985C1197.97 261.031 1243.13 306.194 1264.18 363.511C1281.4 418.333 1281.67 469.345 1281.67 581.629V874.167C1281.67 970 1243.33 1008.33 1147.5 1008.33C1051.67 1008.33 1013.33 1046.67 1013.33 1142.5C1013.33 1238.33 975 1276.67 879.167 1276.67H586.629C474.334 1276.67 423.332 1276.4 368.512 1259.17C311.196 1238.14 266.032 1192.97 244.985 1135.65C227.762 1080.82 227.5 1029.83 227.5 917.538V581.629C227.5 469.346 227.763 418.333 244.985 363.512C266.031 306.194 311.194 261.031 368.512 239.985C423.333 222.763 474.337 222.5 586.629 222.5H922.538C1034.83 222.5 1085.82 222.762 1140.65 239.985Z" fill="#353736"/>
</svg>
