<svg width="194" height="194" viewBox="0 0 194 194" fill="none" xmlns="http://www.w3.org/2000/svg">
<g clip-path="url(#clip0_3102_1904)">
<path d="M27.6419 0.113281H81.8248L108.846 47.4159C108.869 47.4561 108.869 47.4968 108.846 47.538L103.478 56.947C103.455 56.9872 103.42 57.0074 103.374 57.0074H64.3826C64.3492 57.0074 64.3163 57.0163 64.2874 57.0333C64.2584 57.0503 64.2345 57.0747 64.2178 57.104L42.6563 94.8473C42.6351 94.8849 42.5961 94.9037 42.5394 94.9037L27.739 94.909C27.6858 94.909 27.6459 94.8858 27.6194 94.8392L0.62296 47.6467C0.596383 47.6002 0.596383 47.5536 0.62296 47.5071C1.9757 45.0748 3.34041 42.6528 4.71707 40.2411C12.3534 26.862 19.995 13.4861 27.6419 0.113281Z" fill="#3477AC"/>
<path d="M112.315 145.234C112.31 145.234 112.304 145.232 112.299 145.229C112.294 145.226 112.289 145.222 112.286 145.217C110.309 141.761 108.338 138.298 106.374 134.829C106.076 134.303 105.805 133.801 105.561 133.323C105.498 133.199 105.536 133.135 105.674 133.131L107.757 133.075C107.802 133.073 107.835 133.053 107.856 133.015L129.465 95.203C129.483 95.1728 129.492 95.1385 129.492 95.1037C129.492 95.0688 129.483 95.0345 129.465 95.0044C123.15 83.9216 116.82 72.8452 110.478 61.775C109.715 60.4439 108.969 59.1029 108.241 57.7522C108.214 57.7021 108.214 57.652 108.242 57.6019L112.254 50.5438C112.275 50.5053 112.308 50.4861 112.353 50.4861L166.491 50.5411C166.503 50.5411 166.514 50.5439 166.523 50.5494C166.533 50.5548 166.541 50.5626 166.546 50.572L193.505 97.7605C193.522 97.7898 193.531 97.8232 193.531 97.8571C193.531 97.8911 193.522 97.9244 193.505 97.9537L166.538 145.174C166.516 145.214 166.482 145.234 166.436 145.234H112.315Z" fill="#CB4947"/>
<path d="M56.7704 94.8472C56.7562 94.849 56.7443 94.8539 56.7345 94.862C56.7283 94.8674 56.7208 94.87 56.7119 94.87C53.7132 94.845 50.7158 94.8392 47.7198 94.8526C47.7073 94.8524 47.695 94.8489 47.6843 94.8425C47.6735 94.8361 47.6646 94.8269 47.6584 94.8159C47.6522 94.8049 47.649 94.7925 47.649 94.7799C47.6491 94.7673 47.6524 94.7548 47.6587 94.7439L66.6834 61.422C66.7065 61.3817 66.741 61.3616 66.7871 61.3616L100.774 61.3844C100.79 61.3842 100.806 61.3884 100.82 61.3964C100.833 61.4044 100.845 61.416 100.853 61.43C100.861 61.444 100.865 61.46 100.865 61.4762C100.865 61.4925 100.861 61.5085 100.853 61.5226L81.8307 94.7922C81.8068 94.8334 81.7687 94.8539 81.7164 94.8539C73.4193 94.8325 65.1221 94.8423 56.8249 94.8835C56.8214 94.8835 56.8187 94.8821 56.8169 94.8794C56.8081 94.8705 56.7992 94.862 56.7903 94.8539C56.785 94.8486 56.7784 94.8463 56.7704 94.8472Z" fill="#3477AC"/>
<path d="M105.605 62.1895C105.613 62.1753 105.625 62.1636 105.639 62.1553C105.653 62.1471 105.669 62.1427 105.685 62.1426C105.701 62.1424 105.717 62.1466 105.731 62.1546C105.745 62.1626 105.756 62.1741 105.764 62.1881C111.84 72.8289 117.923 83.4791 124.014 94.1387C124.183 94.4339 124.338 94.7354 124.481 95.0431C124.5 95.0843 124.499 95.125 124.477 95.1652C124.06 95.9372 123.635 96.7012 123.204 97.4571C117.253 107.881 111.299 118.303 105.342 128.723C105.318 128.764 105.282 128.786 105.235 128.786L102.998 128.836C102.948 128.837 102.911 128.815 102.886 128.772L85.2565 97.9173C85.2335 97.8771 85.2335 97.8368 85.2565 97.7966L105.605 62.1895Z" fill="#CB4947"/>
<path d="M81.6846 98.7776C81.702 98.7776 81.719 98.7822 81.7339 98.7909C81.7488 98.7996 81.7612 98.8121 81.7697 98.8272L98.8264 128.659C98.8323 128.669 98.8354 128.68 98.8356 128.692C98.8357 128.704 98.8327 128.715 98.8271 128.725C98.8214 128.735 98.8132 128.743 98.8033 128.749C98.7934 128.755 98.7821 128.758 98.7706 128.758C88.1042 128.85 77.4403 128.832 66.7765 128.828C66.7446 128.828 66.7212 128.814 66.7061 128.786L49.652 98.9077C49.6441 98.8942 49.6399 98.8788 49.6399 98.8631C49.6399 98.8474 49.6439 98.8319 49.6517 98.8182C49.6595 98.8045 49.6707 98.7931 49.6843 98.785C49.6979 98.7769 49.7133 98.7725 49.729 98.7722C60.3769 98.6139 71.0367 98.6568 81.6846 98.7776Z" fill="#5E676C"/>
<path d="M81.7111 193.474L27.5589 193.473L0.492065 146.064V145.963L27.5483 98.7494C27.5686 98.7136 27.5992 98.6962 27.6399 98.6971L44.536 98.7467C44.5696 98.7467 44.5953 98.7619 44.613 98.7923L64.2344 133.129C64.2584 133.17 64.2938 133.19 64.3408 133.19H101.35C101.397 133.19 101.432 133.211 101.455 133.252L108.762 146.031C108.783 146.067 108.783 146.104 108.762 146.142L81.7111 193.474Z" fill="#5E676C"/>
</g>
<defs>
<clipPath id="clip0_3102_1904">
<rect width="193.359" height="193.359" fill="white" transform="translate(0.484375 0.113281)"/>
</clipPath>
</defs>
</svg>
